inDegrees=no
num_controls=7
num_derivatives=13
num_iterations=19
num_multipliers=7
num_parameters=0
num_slacks=7
num_states=26
objective=0.469938
objective_accelerations=0.002408
objective_balance=0.012120
objective_effort=0.014808
objective_height=0.438678
objective_ligament=0.001925
solver_duration=261.744132
status=Solve_Succeeded
success=true
DataType=double
version=3
OpenSimVersion=4.5
endheader
time	/jointset/ground_pelvis/pelvis_tilt/value	/jointset/ground_pelvis/pelvis_tx/value	/jointset/ground_pelvis/pelvis_ty/value	/jointset/hip_l/hip_flexion_l/value	/jointset/hip_l/hip_adduction_l/value	/jointset/hip_l/hip_rotation_l/value	/jointset/back/lumbar_extension/value	/jointset/patellofemoral_l/patellar_flexion_l/value	/jointset/knee_l/knee_flexion_l/value	/jointset/knee_l/knee_adduction_l/value	/jointset/knee_l/knee_rotation_l/value	/jointset/ankle_l/ankle_angle_l/value	/jointset/subtalar_l/subtalar_angle_l/value	/jointset/ground_pelvis/pelvis_tilt/speed	/jointset/ground_pelvis/pelvis_tx/speed	/jointset/ground_pelvis/pelvis_ty/speed	/jointset/hip_l/hip_flexion_l/speed	/jointset/hip_l/hip_adduction_l/speed	/jointset/hip_l/hip_rotation_l/speed	/jointset/back/lumbar_extension/speed	/jointset/patellofemoral_l/patellar_flexion_l/speed	/jointset/knee_l/knee_flexion_l/speed	/jointset/knee_l/knee_adduction_l/speed	/jointset/knee_l/knee_rotation_l/speed	/jointset/ankle_l/ankle_angle_l/speed	/jointset/subtalar_l/subtalar_angle_l/speed	/forceset/tau_hip_flexion_l	/forceset/tau_hip_adduction_l	/forceset/tau_hip_rotation_l	/forceset/tau_knee_flexion_l	/forceset/tau_ankle_angle_l	/forceset/tau_subtalar_angle_l	/forceset/tau_lumbar_extension	lambda_cid13_p0	lambda_cid13_p1	lambda_cid13_p2	lambda_cid13_p3	lambda_cid13_p4	lambda_cid13_p5	lambda_cid14_p0	/jointset/ground_pelvis/pelvis_tilt/accel	/jointset/ground_pelvis/pelvis_tx/accel	/jointset/ground_pelvis/pelvis_ty/accel	/jointset/hip_l/hip_flexion_l/accel	/jointset/hip_l/hip_adduction_l/accel	/jointset/hip_l/hip_rotation_l/accel	/jointset/back/lumbar_extension/accel	/jointset/patellofemoral_l/patellar_flexion_l/accel	/jointset/knee_l/knee_flexion_l/accel	/jointset/knee_l/knee_adduction_l/accel	/jointset/knee_l/knee_rotation_l/accel	/jointset/ankle_l/ankle_angle_l/accel	/jointset/subtalar_l/subtalar_angle_l/accel	gamma_cid13_p0	gamma_cid13_p1	gamma_cid13_p2	gamma_cid13_p3	gamma_cid13_p4	gamma_cid13_p5	gamma_cid14_p0
1.5	0.01552947348289615	0.0245338822665046	0.9135520029564503	0.2604345559312071	-0.1428855037632235	-0.07977235069282401	-0.2924690585588877	0.05137215789654587	0.05137215789650004	0.07262100259817468	-0.02932961330407415	-0.0372556569741315	0.1049403862870745	-0.3706626616590002	0.01175567033450134	-0.03059494379811515	0.3949037719013146	-0.002419353550629427	-0.0592991581613613	0.5684622999441337	-0.002629450856495737	-0.002629450856494998	-0.008678990096088017	0.06211769572177601	-0.02203076843629911	-0.008472261952022064	0.01564818756900755	0.06340767824161025	0.01461130157000197	-0.1812187471946692	0.215342430385855	-0.04858763097590193	0.05957985789627848	24.14009216055732	22.66297550722584	-10.62694534414603	1.701914164961706	-629.4227234879869	-13.44573871840826	-34.79894559063365	-0.3504622478289072	0.00241966316104186	-0.04667052351108149	0.437397939056445	-0.05085808554720016	-0.07337405304405356	0.6921739449436842	0.119495774635327	0.1194957746353269	-0.09334830054698202	0.1025199686669433	0.03651568347162362	-0.0387234459532227	3.997832303720487e-09	6.353745847973945e-09	-1.467560314903803e-09	-4.023968194760366e-09	-7.96974937548039e-09	7.926603177157181e-10	1.398426915459538e-09
1.51	0.011805881813751	0.02465149949534958	0.9132437620155904	0.264404840727057	-0.1429122850332674	-0.0803691906680081	-0.2867508438171554	0.05135169016763082	0.05135169016754453	0.07252943756838043	-0.02870313865946878	-0.03747422113621909	0.1048536595063767	-0.374024330791694	0.01176122692695535	-0.03105231894688729	0.3991318063916571	-0.002937848924370986	-0.06006947683241082	0.5751070695667614	-0.001454112693202716	-0.00145411269320204	-0.009634789983825366	0.06317980245242029	-0.02168214495439551	-0.008874052742404291	0.01582716698147993	0.06327208093785394	0.01454800457395925	-0.1815179253763094	0.2158557642863232	-0.04865798981896909	0.05863594059650181	24.3091854528896	22.65545887148241	-10.61607623789169	1.676436726927675	-629.2639963256482	-13.46340877804166	-34.80452880292803	-0.3243180184746187	-0.001359417264652225	-0.04513377331669371	0.4122990318774736	-0.05248848742401526	-0.0789562364240837	0.6395916511107198	0.1180498798411582	0.1180498798416175	-0.09681095305117424	0.1084419609429444	0.03402457300057062	-0.04105160641179675	4.060087190641868e-09	6.430114500175168e-09	-1.543551291381833e-09	-3.989037964696924e-09	-7.912754189173895e-09	8.494887003158678e-10	1.442569740291996e-09
1.52	0.008049613698805811	0.02476897567521435	0.9129309747706846	0.2684167644333983	-0.1429442799018969	-0.08097375292235702	-0.2809683887431545	0.05134327522883372	0.05134327522878428	0.07242829151570669	-0.02806596576041299	-0.03768930128499422	0.1047628858756097	-0.3771979508238315	0.01172746053846037	-0.03150420460728001	0.40323155399623	-0.003462073263536548	-0.06084361399500574	0.5813103663967274	-0.0002188928233344578	-0.0002188928233338324	-0.01059519467813147	0.06425734661024407	-0.02133396577448582	-0.009281631966033122	0.01600614639393101	0.06313648363408371	0.01448470757791439	-0.1818171035579957	0.2163690981867598	-0.04872834866206079	0.05769202329673033	24.47899092317556	22.64716103976867	-10.6043327135975	1.646369512442951	-629.0984848126848	-13.48293646123896	-34.81062004725416	-0.3128524277157794	-0.005444933030241991	-0.04557262583525711	0.4117405619024873	-0.0520038786319541	-0.07413775135278934	0.6038793864132087	0.1314721159503664	0.1314721159503663	-0.09426926186066686	0.1056074541026815	0.03642682307105354	-0.03988113260306572	4.120710462755943e-09	6.494256572524666e-09	-1.625876000038782e-09	-3.938688327539808e-09	-7.829324816149591e-09	9.128235290849393e-10	1.489007586020814e-09
1.53	0.004262580612114332	0.02488592339796854	0.9126137008183542	0.272468995489431	-0.1429815578112135	-0.08158606804090182	-0.2751261355532705	0.05134750014084184	0.0513475001407483	0.07231749448635579	-0.02741794770350876	-0.03790089915812404	0.1046679960344059	-0.3801728512195169	0.01165608755702306	-0.03194907651406251	0.407186861408823	-0.003995571704584119	-0.06161865695783979	0.5870621853346335	0.00107261187874713	0.001072611878747671	-0.01156712277742259	0.06534741574086747	-0.02098535952334077	-0.009698333406372659	0.01619424830182884	0.06299181506859641	0.01442016244837993	-0.1821519162663405	0.2169236568285092	-0.04880519181163021	0.05672798058343002	24.66072528295746	22.64068901131654	-10.59413482508357	1.610921457201531	-628.9469957774702	-13.5012509218365	-34.81723961786516	-0.2844364841959248	-0.008883720469101471	-0.04371960312891945	0.3832564662869055	-0.05433323864214271	-0.07907409113196687	0.5491202162108758	0.1292998334887377	0.1292998334892264	-0.09909032982315379	0.1108798646667759	0.03411598538588665	-0.04286514446650009	4.179600144137255e-09	6.545407903781704e-09	-1.714930299135833e-09	-3.871955570345662e-09	-7.717809119737613e-09	9.830714569084903e-10	1.537883891452017e-09
